<svg xmlns="http://www.w3.org/2000/svg" xmlns:xlink="http://www.w3.org/1999/xlink" viewBox="2850 1090 400 400" width="200" height="400" id="logo" >
   <g transform="scale(9 9)" >
      <path d="M337.32,151.33c-4.84-.42-9.93-1.88-13.51-5.19v14.34a14.88,14.88,0,0,0,14.88,14.88h0a14.88,14.88,0,0,0,14.88-14.88V145.9C348.5,148,342.74,151.8,337.32,151.33Z" fill="#1f2937"></path>
      <ellipse cx="338.7" cy="146.05" rx="14.88" ry="7.89" fill="#4b5563"></ellipse>
      <path d="M338.7,147.38s-10.12-1.49-12.8-17.86C325.9,129.53,334.53,134.29,338.7,147.38Z" fill="#fb923c"></path>
      <path d="M340.19,145.3s-11.61-20.83,0-34.82A58.37,58.37,0,0,1,340.19,145.3Z" fill="#fb923c"></path>
      <path d="M338.7,132.21s-10.12-1.49-12.8-17.86C325.9,114.35,334.53,119.11,338.7,132.21Z" fill="#fb923c"></path>
      <path d="M339.93,138.88s-2.53-9.91,11.53-18.7C351.46,120.18,350.4,130,339.93,138.88Z" fill="#fb923c"></path>
   </g>
</svg>
